<?xml version="1.0" encoding="utf-8"?>
<!-- Generator: Adobe Illustrator 16.0.4, SVG Export Plug-In . SVG Version: 6.00 Build 0)  -->
<!DOCTYPE svg PUBLIC "-//W3C//DTD SVG 1.1//EN" "http://www.w3.org/Graphics/SVG/1.1/DTD/svg11.dtd">
<svg version="1.1" id="Layer_1" xmlns="http://www.w3.org/2000/svg" xmlns:xlink="http://www.w3.org/1999/xlink" x="0px" y="0px"
	 width="360px" height="121.333px" viewBox="0 0 360 121.333" enable-background="new 0 0 360 121.333" xml:space="preserve">
<g>
	<g>
		<path fill="#3E7FB7" d="M51.832,104.54c-12.336,0-21.999-19.728-21.999-44.912s9.663-44.913,21.999-44.913
			c12.335,0,21.998,19.728,21.998,44.913S64.167,104.54,51.832,104.54z M51.832,19.604c-8.263,0-17.11,16.083-17.11,40.024
			c0,23.941,8.847,40.024,17.11,40.024c8.262,0,17.109-16.083,17.109-40.024C68.941,35.688,60.094,19.604,51.832,19.604z"/>
	</g>
	<g>
		<path fill="#3E7FB7" d="M51.832,104.54c-24.764,0-44.913-20.148-44.913-44.913c0-24.764,20.148-44.913,44.913-44.913
			s44.913,20.148,44.913,44.913C96.744,84.392,76.596,104.54,51.832,104.54z M51.832,19.603c-22.07,0-40.024,17.954-40.024,40.024
			c0,22.069,17.954,40.025,40.024,40.025c22.069,0,40.023-17.956,40.023-40.025C91.855,37.557,73.901,19.603,51.832,19.603z"/>
	</g>
	<g>
		<path fill="#3E7FB7" d="M51.832,44.273c-14.666,0-30.252-4.858-30.252-13.862c0-9.004,15.586-13.862,30.252-13.862
			s30.251,4.858,30.251,13.862C82.083,39.415,66.497,44.273,51.832,44.273z M51.832,21.437c-15.714,0-25.364,5.226-25.364,8.974
			c0,3.747,9.649,8.974,25.364,8.974s25.363-5.227,25.363-8.974C77.195,26.663,67.546,21.437,51.832,21.437z"/>
	</g>
	<g>
		<path fill="#3E7FB7" d="M51.832,102.5c-14.666,0-30.252-4.857-30.252-13.86c0-9.005,15.586-13.864,30.252-13.864
			s30.251,4.858,30.251,13.864C82.083,97.642,66.497,102.5,51.832,102.5z M51.832,79.664c-15.714,0-25.364,5.228-25.364,8.976
			c0,3.746,9.649,8.972,25.364,8.972s25.363-5.226,25.363-8.972C77.195,84.891,67.546,79.664,51.832,79.664z"/>
	</g>
	<g>
		<rect x="9.363" y="57.183" fill="#3E7FB7" width="84.938" height="4.888"/>
	</g>
	<g>
		<rect x="49.387" y="17.16" fill="#3E7FB7" width="4.888" height="84.936"/>
	</g>
</g>
<g>
	<path fill="#FFFFFF" d="M129.646,79.324c-0.615,0-1.012-0.042-1.068-0.049l-19.308,0.012c-2.457,0-3.79-0.975-4.476-1.794
		c-1.251-1.494-1.152-3.33-1.08-3.927l0.057-2.681V45.091c-0.094-0.702-0.257-2.953,1.18-4.637c0.69-0.811,2.045-1.74,4.36-1.713
		l19.411-0.001c0.286-0.01,3.319-0.049,5.64,2.126c1.518,1.42,2.325,3.392,2.404,5.861c0.075,2.346-0.565,4.25-1.903,5.661
		c3.597,1.766,5.518,5.037,5.556,8.162c0.039,3.174-0.024,8.294-0.024,8.294c-0.013,3.389-1.072,6.051-3.148,7.897
		C134.703,79.004,131.341,79.324,129.646,79.324z M107.438,54.632l-0.087,19.401c-0.023,0.16-0.034,0.773,0.264,1.116
		c0.264,0.304,0.852,0.471,1.656,0.471h19.515c0.236,0.013,3.81,0.367,6.042-1.632c1.252-1.123,1.892-2.863,1.902-5.172
		c0-0.021,0.062-5.082,0.024-8.219c-0.026-2.223-2.15-5.742-7.721-5.864c-0.139,0.007-0.249-0.002-0.297-0.005L107.438,54.632z
		 M128.835,51.064c0.034,0,0.069,0,0.103,0.001c0.445-0.002,2.147-0.083,3.203-1.136c0.691-0.688,1.006-1.697,0.96-3.084
		c-0.046-1.46-0.465-2.572-1.245-3.302c-1.221-1.144-3.076-1.151-3.073-1.138l-19.514,0.003c-0.754-0.027-1.268,0.125-1.525,0.42
		c-0.401,0.462-0.399,1.42-0.335,1.813l0.027,0.312v6.013l21.396,0.098C128.833,51.064,128.834,51.064,128.835,51.064
		L128.835,51.064z"/>
</g>
<g>
	<path fill="#FFFFFF" d="M175.163,79.325h-17.058c-3.091,0-5.659-1.018-7.633-3.025c-4.046-4.111-3.981-10.923-3.977-11.211V52.847
		c0-4.921,1.326-8.674,3.94-11.155c3.307-3.134,7.433-2.956,7.612-2.949l24.549-0.002v3.666h-24.646
		c-0.123-0.007-2.89-0.078-5.03,1.981c-1.832,1.766-2.76,4.611-2.76,8.459v12.271c-0.001,0.083-0.033,5.616,2.934,8.62
		c1.275,1.292,2.915,1.92,5.01,1.92h17.058c5.743,0,6.67-3.085,6.67-10.464c0-7.283-0.628-10.478-6.631-10.515l-14.597,0.051
		l-0.012-3.667l14.614-0.05c10.292,0.063,10.292,8.56,10.292,14.181C185.499,70.479,185.499,79.325,175.163,79.325z"/>
</g>
<g>
	<path fill="#FFFFFF" d="M193.039,78.689l-3.665-0.026l0.098-13.51l-0.06-20.654c-0.072-0.596-0.173-2.441,1.083-3.938
		c0.683-0.814,2.011-1.785,4.452-1.785l4.094-0.012c3.631-0.015,8.208-0.036,15.319,0.012c7.674,0.051,11.563,3.297,11.56,9.649
		l0.002,2.354c-0.002,1.7-0.002,3.572,0.024,4.987c0.017,0.944,0.069,3.819-2.15,6.062c-1.943,1.963-5.166,2.859-9.438,2.908
		l-21.22,0.074L193.039,78.689z M205.832,42.412c-2.682,0-4.863,0.01-6.775,0.018l-4.109,0.012c-0.458,0-1.282,0.061-1.635,0.465
		c-0.297,0.343-0.287,0.963-0.261,1.153l0.024,0.25l0.062,2.788v14.045l21.228-0.074c3.2-0.041,5.62-0.604,6.823-1.82
		c0.998-1.008,1.112-2.292,1.092-3.417c-0.026-1.435-0.026-3.333-0.024-5.057l-0.002-2.16c0.002-2.411,0.004-6.122-7.918-6.174
		C210.997,42.419,208.215,42.412,205.832,42.412z"/>
</g>
<g>
	<path fill="#FFFFFF" d="M353.081,78.676h-3.666V59.032c0-0.705-0.185-6.823-6.493-6.823h-7.867c-1.955,0-3.432,0.532-4.516,1.625
		c-1.95,1.967-1.977,5.149-1.977,5.181v19.66h-3.666V59.032c-0.002-0.175-0.008-4.707,3.038-7.778
		c1.783-1.799,4.18-2.711,7.12-2.711h7.867c2.941,0,5.337,0.912,7.121,2.711c3.045,3.071,3.04,7.603,3.038,7.794V78.676z"/>
</g>
<g>
	<path fill="#FFFFFF" d="M282.466,78.676H278.8V59.032c0-0.705-0.184-6.823-6.492-6.823h-6.836c-1.955,0-3.434,0.532-4.517,1.625
		c-1.907,1.923-1.974,5.009-1.977,5.175c0,0.02,0,0.033,0,0.039v19.627h-3.667V59.032c0-0.005,0-0.013,0-0.025
		c-0.004-0.814-0.252-6.798-6.492-6.798h-7.637c-1.956,0-3.434,0.532-4.517,1.625c-1.951,1.967-1.978,5.149-1.978,5.181v19.66
		h-3.665V59.032c-0.003-0.175-0.008-4.707,3.038-7.778c1.783-1.799,4.179-2.711,7.121-2.711h7.637c2.941,0,5.338,0.912,7.121,2.711
		c0.471,0.475,0.868,0.985,1.206,1.508c0.336-0.523,0.734-1.033,1.204-1.508c1.681-1.697,3.907-2.605,6.624-2.703v-0.009l7.83,0.009
		c2.715,0.098,4.942,1.006,6.623,2.703c3.046,3.071,3.04,7.603,3.038,7.794V78.676z"/>
</g>
<g>
	<path fill="#FFFFFF" d="M303.254,79.325c-8.486,0-15.392-6.904-15.392-15.391s6.905-15.391,15.392-15.391
		c8.485,0,15.391,6.904,15.391,15.391S311.739,79.325,303.254,79.325z M303.254,52.209c-6.464,0-11.725,5.26-11.725,11.725
		s5.261,11.725,11.725,11.725s11.725-5.26,11.725-11.725S309.718,52.209,303.254,52.209z"/>
</g>
</svg>
