<?xml version="1.0" encoding="utf-8"?>
<!-- Generator: Adobe Illustrator 16.0.4, SVG Export Plug-In . SVG Version: 6.00 Build 0)  -->
<!DOCTYPE svg PUBLIC "-//W3C//DTD SVG 1.1//EN" "http://www.w3.org/Graphics/SVG/1.1/DTD/svg11.dtd">
<svg version="1.1"
	 id="svg2" xmlns:dc="http://purl.org/dc/elements/1.1/" xmlns:cc="http://creativecommons.org/ns#" xmlns:rdf="http://www.w3.org/1999/02/22-rdf-syntax-ns#" xmlns:svg="http://www.w3.org/2000/svg" sodipodi:docname="New document 1" inkscape:version="0.48.2 r9819" xmlns:inkscape="http://www.inkscape.org/namespaces/inkscape" xmlns:sodipodi="http://sodipodi.sourceforge.net/DTD/sodipodi-0.dtd"
	 xmlns="http://www.w3.org/2000/svg" xmlns:xlink="http://www.w3.org/1999/xlink" x="0px" y="0px" width="300px" height="105.309px"
	 viewBox="0 0 300 105.309" enable-background="new 0 0 300 105.309" xml:space="preserve">
<sodipodi:namedview  id="base" inkscape:window-x="638" inkscape:document-units="px" inkscape:pageopacity="0.0" inkscape:current-layer="layer1" fit-margin-right="0.2" inkscape:pageshadow="2" fit-margin-bottom="0.2" inkscape:guide-bbox="true" inkscape:window-width="1277" inkscape:window-height="1039" inkscape:window-y="-21" inkscape:window-maximized="0" showguides="true" showgrid="false" fit-margin-top="0.2" fit-margin-left="0.2" inkscape:cx="261.16041" inkscape:cy="-2.7655466" pagecolor="#ffffff" bordercolor="#666666" borderopacity="1.0" inkscape:zoom="1.979899">
	<inkscape:grid  type="xygrid" id="grid2996" snapvisiblegridlinesonly="true" empspacing="5" enabled="true" visible="true">
		</inkscape:grid>
</sodipodi:namedview>
<g id="layer1" transform="translate(160.3875,-1481.5407)" inkscape:groupmode="layer" inkscape:label="Layer 1">
	<g id="g3947" transform="matrix(0.24509671,0,0,0.24509671,-120.92607,1197.7672)">
		<path id="path3775" inkscape:connector-curvature="0" fill="#FFFFFF" d="M542.186,1405.698c-49.056,0-89.97,40.286-89.97,90.689
			c0,47.494,38.571,89.78,90.344,89.78c36.083,0,58.921-21.472,66.252-29.56l-12.471-12.252
			c-4.208,5.02-22.416,24.313-53.781,24.313c-42.286,0-72.843-34.21-72.843-72.281c0-40.975,32.959-73.189,72.468-73.189
			c33.684,0,51.215,20.91,51.215,20.91c3.144,3.674,8.67,4.108,12.344,0.968c3.682-3.144,4.112-8.67,0.972-12.344
			C606.717,1432.733,583.337,1405.698,542.186,1405.698z"/>
		<path id="path2998" inkscape:connector-curvature="0" fill="#FFFFFF" d="M-70.219,1405.698c-49.056,0-89.968,40.286-89.968,90.689
			c0,47.494,38.569,89.78,90.342,89.78c36.083,0,58.925-21.472,66.25-29.56l-12.469-12.252c-4.21,5.02-22.416,24.313-53.781,24.313
			c-42.286,0-72.843-34.21-72.843-72.281c0-40.975,32.959-73.189,72.468-73.189c33.686,0,51.219,20.91,51.219,20.91
			c3.14,3.674,8.668,4.108,12.344,0.968c3.676-3.144,4.11-8.67,0.968-12.344C-5.688,1432.733-29.066,1405.698-70.219,1405.698z"/>
		<path id="path3777" inkscape:connector-curvature="0" fill="#FFFFFF" d="M115.344,1405.575c-44.767,0-90.25,35.226-90.25,91.031
			c0,50.829,41.978,89.501,90.938,89.501c55.997,0,89.499-47.502,89.499-90.127C205.531,1449.212,167.524,1405.575,115.344,1405.575
			z M115.344,1423.074c42.404,0,72.687,35.62,72.687,72.906c0,33.525-25.901,72.624-72,72.624
			c-39.836,0-73.438-30.748-73.438-71.998C42.593,1450.22,79.612,1423.074,115.344,1423.074z"/>
		<path id="path3779" inkscape:connector-curvature="0" fill="#FFFFFF" d="M389.156,1405.451c-3.417,0.052-6.469,2.144-7.75,5.311
			l-52.626,128.999l-52.562-128.967c-1.783-4.343-6.748-6.419-11.091-4.638c-2.666,1.096-4.596,3.462-5.128,6.291l-30.156,163.97
			c-0.954,4.598,1.996,9.096,6.594,10.053c4.596,0.956,9.096-1.996,10.053-6.594c0.026-0.132,0.05-0.263,0.072-0.395l24.906-135.314
			l49.436,121.345c1.769,4.351,6.728,6.443,11.077,4.674c2.126-0.865,3.811-2.55,4.674-4.674l49.5-121.468l26.032,141.123H429.5
			l-31.875-172.747C396.877,1408.34,393.299,1405.4,389.156,1405.451z"/>
		<path id="path3794" inkscape:connector-curvature="0" fill="#FFFFFF" d="M710.343,1405.264c-3.395,0.06-6.431,2.136-7.722,5.279
			l-66.966,164.312c-1.781,4.351,0.307,9.316,4.658,11.093c4.347,1.777,9.315-0.307,11.093-4.654l0,0l59.093-145.032l60.718,148.969
			h18.376l-71.217-174.688C717.045,1407.292,713.854,1405.197,710.343,1405.264z"/>
		<path id="path3796" inkscape:connector-curvature="0" fill="#FFFFFF" d="M670.89,1501.168v17.5h75.97v-17.5H670.89z"/>
		<path id="path3811" inkscape:connector-curvature="0" fill="#FFFFFF" d="M868.938,1405.826c-12.527,0-25.062,3.152-35.031,10.467
			c-9.977,7.315-16.91,19.36-16.91,34.094c0,12.838,4.781,23.329,12.846,30.656c8.064,7.327,18.44,12.28,31.405,18.97
			c0.04,0.02,0.084,0.04,0.128,0.06c13.164,6.503,24.767,11.758,32.186,17.531s10.877,10.834,10.877,20.783
			c0,9.678-3.729,16.699-9.818,21.906c-6.084,5.208-14.798,8.343-24.281,8.343c-22.492,0-39.366-14.587-45.31-20.531l-12.937,11.814
			c7.367,7.614,28.381,26.217,58.248,26.217c13.28,0,26.018-4.283,35.66-12.531c9.638-8.244,15.938-20.699,15.938-35.218
			c0-15.081-7.554-26.723-17.627-34.561c-10.041-7.817-22.36-13.109-35.063-19.376c-0.044-0.02-0.08-0.04-0.128-0.064
			c-12.997-6.702-22.344-11.599-27.5-16.28c-5.172-4.702-7.124-8.427-7.124-17.719c0-9.678,3.666-15.515,9.786-20.002
			c6.112-4.482,15.149-7.06,24.655-7.06c16.87,0,31.126,9.22,31.126,9.22c3.881,2.873,9.363,2.056,12.24-1.829
			c2.873-3.885,2.056-9.363-1.829-12.24c-0.223-0.163-0.458-0.319-0.697-0.462C909.778,1418.014,892.048,1405.826,868.938,1405.826z
			"/>
		<path id="path3813" inkscape:connector-curvature="0" fill="#FFFFFF" d="M952.403,1406.73c-4.829-0.068-8.806,3.793-8.869,8.626
			c-0.072,4.833,3.793,8.805,8.622,8.873c0.084,0.004,0.167,0.004,0.247,0h100.909c4.829,0.068,8.805-3.793,8.873-8.626
			c0.068-4.833-3.793-8.806-8.626-8.873c-0.08,0-0.167,0-0.247,0H952.403z"/>
		<path id="path3815" inkscape:connector-curvature="0" fill="#FFFFFF" d="M994.749,1417.731v8.248v150.969v8.252h16.499v-8.252
			v-150.969v-8.248H994.749z"/>
		<g id="g3886" transform="matrix(1.1452003,0,0,1.1452003,388.66843,2039.8504)">
			<g id="g3898" transform="translate(-96.974644,-783.87837)">
				<path id="path3862" inkscape:connector-curvature="0" fill="#F37021" d="M46.569,58.859
					c-11.382,10.281-15.528,33.574,4.993,47.189l81.862,56.029L93.731,71.36C85.414,49.953,62.662,45.284,46.569,58.859"/>
				<path id="path3864" inkscape:connector-curvature="0" fill="#CC004C" d="M117.035,14.753
					c-13.308,0.271-33.289,16.081-24.394,40.22l41.053,96.583l14.423-101.589C151.455,24.725,132.307,13.073,117.035,14.753"/>
				<path id="path3866" inkscape:connector-curvature="0" fill="#6460AA" d="M154.523,46.094h7.762c0,0,4.147,0,4.711,1.948
					c-3.055,2.491-11.37,2.801-10.267,16.095l13.05,87.405l40.769-96.837c8.343-21.623-9.164-39.68-24.688-40.234
					c-0.731-0.052-1.454-0.094-2.206-0.094C169.714,14.378,153.744,24.485,154.523,46.094"/>
				<path id="path3868" inkscape:connector-curvature="0" fill="#0089D0" d="M208.91,72.181l-38.564,89.628l81.835-56.321
					c18.868-13.35,15.823-34.691,5.264-45.24c-4.429-4.965-12.557-8.799-21.164-8.799C226.108,51.449,215.222,56.831,208.91,72.181"
					/>
				<path id="path3870" inkscape:connector-curvature="0" fill="#0DB14B" d="M243.021,118.243l-76.856,53.552h94.631
					c19.414,0,31.89-19.971,26.345-38.296c-3.712-11.516-14.707-20.559-27.461-20.573
					C254.311,112.926,248.619,114.541,243.021,118.243"/>
				<path id="path3872" inkscape:connector-curvature="0" fill="#FCB711" d="M44.363,171.795h93.234l-76.873-53.552
					c-17.761-11.384-37.729-4.725-44.941,14.164C9.673,154.033,24.933,171.795,44.363,171.795"/>
			</g>
		</g>
	</g>
</g>
</svg>
