<?xml version="1.0" encoding="utf-8"?>
<!-- Generator: Adobe Illustrator 16.0.4, SVG Export Plug-In . SVG Version: 6.00 Build 0)  -->
<!DOCTYPE svg PUBLIC "-//W3C//DTD SVG 1.1//EN" "http://www.w3.org/Graphics/SVG/1.1/DTD/svg11.dtd">
<svg version="1.1" xmlns="http://www.w3.org/2000/svg" xmlns:xlink="http://www.w3.org/1999/xlink" x="0px" y="0px"
	 width="974.425px" height="294.75px" viewBox="0 0 974.425 294.75" enable-background="new 0 0 974.425 294.75"
	 xml:space="preserve">
<g id="Layer_2">
</g>
<g id="svg3355" xmlns:dc="http://purl.org/dc/elements/1.1/" xmlns:cc="http://creativecommons.org/ns#" xmlns:rdf="http://www.w3.org/1999/02/22-rdf-syntax-ns#" xmlns:svg="http://www.w3.org/2000/svg">
	<g id="g3363" transform="matrix(1.25,0,0,-1.25,0,294.75)">
		<g id="g3365" transform="scale(0.1,0.1)">
			<path id="path3367" fill="#FFFFFF" d="M182.969,529.211c-22.734,20.398-37.031,27.742-54.375,27.742
				c-36.875,0-62.109-33.133-62.109-81.172c0-42.5,9.219-60.781,69.609-134.609c54.453-68.281,70.859-108.828,70.859-175.078
				C206.953,66.32,160.234,0,89.062,0c-28.984,0-51.25,9.211-72.969,29.453v82.188c26.406-24.219,43.984-32.43,65.625-32.43
				c36.172,0,58.906,32.43,58.906,83.992c0,44.219-12.891,73.672-57.266,126.086C14.531,372.344,0,403.82,0,473.898
				c0,96.805,43.984,157.891,114.141,157.891c27.969,0,44.062-4.68,68.828-21.25V529.211"/>
			<path id="path3369" fill="#FFFFFF" d="M396.406,290.312c-8.047,55.547-18.75,150.469-24.219,213.117
				c-6.562-81.086-14.141-139.141-28.672-232.414l-12.734-79.305h80.859L396.406,290.312z M399.609,623.281L507.422,8.203h-66.953
				l-18.906,119.836h-99.844L302.031,8.203h-65l109.531,615.078H399.609"/>
			<path id="path3371" fill="#FFFFFF" d="M612.891,623.281l68.281-245.242c18.125-67.336,37.031-149.367,51.25-222.18
				c-6.172,53.281-8.516,76.484-10.391,101.32c-2.5,35.789-5.547,105.086-5.547,136.57v229.531h67.969V8.203h-63.438
				l-76.172,276.719c-2.969,12.891-12.891,50.703-19.609,79.367c-5.312,22.109-5.859,24.773-16.719,85.711
				c-1.328,6.25-3.516,17.422-5.859,31.172c2.891-26.797,2.344-23.828,3.828-50.703c2.891-55.156,1.406-25.625,4.375-91.953
				c2.031-33.367,1.484-28.836,2.031-62.117l3.828-268.195h-66.953v615.078H612.891"/>
			<path id="path3373" fill="#FFFFFF" d="M1075.789,80.148c81.48,0,104.289,49.062,104.289,223.914
				c0,190-22.809,249.219-96.789,249.219h-7.5V80.148z M1090.711,623.281c59.219,0,88.668-14.688,114.84-56.406
				c32.418-51.727,45.309-124.375,45.309-257.195c0-132.727-14.211-206.555-48.199-252.57c-26.949-35-65.621-48.906-139.762-48.906
				h-55.078v615.078H1090.711"/>
			<path id="path3375" fill="#FFFFFF" d="M1321.328,8.203h67.66v615.078h-67.66V8.203z"/>
			<path id="path3377" fill="#FFFFFF" d="M1650.32,623.281v-70h-112.5V357.812h99.609v-70.164h-99.609V78.203h112.5v-70H1470
				v615.078H1650.32"/>
			<path id="path3379" fill="#FFFFFF" d="M1959.07,331.953c0-63.594,0-73.828-0.859-100.555C1952.039,60.93,1921.179,0,1838.988,0
				c-96.559,0-133.59,86.562-133.59,313.43c0,132.891,12.031,219.461,35.461,261.805c21.18,37.805,51.25,56.555,92.82,56.555
				c67.109,0,101.25-35.305,121.641-126.398l-63.441-32.578c-10.699,64.609-24.77,86.008-57.418,86.008
				c-46.02,0-58.75-54.445-58.75-245.391c0-181.719,13.75-237.109,59.449-237.109c43.988,0,59.77,40.711,59.77,156.023v29.367
				h-58.91v70.242H1959.07"/>
			<path id="path3381" fill="#FFFFFF" d="M2101.648,507.969c-8.359-31.484-11.18-82.898-11.18-202.82
				c0-175.383,14.223-228.828,60.242-228.828c28.508,0,45.23,21.328,51.949,68.359c4.609,34.141,7.66,87.664,7.66,148.289
				c0,124.766-5.32,199.375-15.941,227.812c-8.828,24.141-23.199,36.172-42.809,36.172
				C2126.648,556.953,2111.41,542.109,2101.648,507.969z M2281.328,310.703C2281.328,83.75,2246.801,0,2153.601,0
				c-99.613,0-134.301,85.539-134.301,330c0,218.594,35.469,301.789,129.379,301.789
				C2246.801,631.789,2281.328,546.64,2281.328,310.703"/>
			<path id="path3383" fill="#FFFFFF" d="M2662.5,529.211c-22.812,20.398-37.031,27.742-54.367,27.742
				c-37.031,0-61.953-33.133-61.953-81.172c0-42.5,9.219-60.781,69.453-134.609c54.523-68.281,70.938-108.828,70.938-175.078
				C2686.57,66.32,2639.687,0,2568.758,0c-29.297,0-51.258,9.211-72.969,29.453v82.188c26.094-24.219,43.672-32.43,65.617-32.43
				c36.094,0,58.75,32.43,58.75,83.992c0,44.219-12.727,73.672-57.258,126.086c-68.68,83.055-83.211,114.531-83.211,184.609
				c0,96.805,44.07,157.891,114.305,157.891c27.969,0,43.586-4.68,68.508-21.25V529.211"/>
			<path id="path3385" fill="#FFFFFF" d="M2813.359,623.281V188.984c0-35.945,1.797-57.273,3.828-70.945
				c4.531-25.07,21.961-39.836,45.391-39.836c40.633,0,49.695,18.438,49.695,98.75v446.328h66.328V176.953
				C2978.601,46.015,2948.437,0,2863.211,0c-52.742,0-87.5,22.109-103.992,68.125c-9.141,23.984-12.336,55.305-12.336,120.859
				v434.297H2813.359"/>
			<path id="path3387" fill="#FFFFFF" d="M3132.742,352.109c48.195,0,67.969,27.734,67.969,94.922
				c0,71.953-20.555,106.25-62.891,106.25h-11.102V352.109H3132.742z M3147.82,623.281c85.391,0,123.203-50.711,123.203-165.078
				c0-131.883-36.953-177.109-144.305-177.109V8.203h-68.117v615.078H3147.82"/>
			<path id="path3389" fill="#FFFFFF" d="M3507.109,623.281v-70h-112.5V357.812h99.461v-70.164h-99.461V78.203h112.5v-70h-180.461
				v615.078H3507.109"/>
			<path id="path3391" fill="#FFFFFF" d="M3639.851,350.234c52.727,1.016,72.805,26.945,72.805,96.797
				c0,78.438-16.719,107.969-61.945,107.969h-10.859V350.234z M3661.257,623.281c79.062,0,117.18-50.711,117.18-157.742
				c0-89.367-25.227-145.617-69.609-158.508L3800.71,8.203h-68.602l-92.258,300.547V8.203h-67.812v615.078H3661.257"/>
			<path id="path3393" fill="#FFFFFF" d="M4046.792,538.43c-19.609,12.039-30.297,15.711-42.797,15.711
				c-64.453,0-92.812-75.711-92.812-243.438c0-155.703,30.703-230.555,95.609-230.555c14.391,0,23.453,2.742,40,12.82V17.422
				C4028.042,3.515,4015.855,0,3993.214,0c-103.441,0-154.145,100.469-154.145,305.148c0,220.32,49.367,326.641,151.332,326.641
				c22.25,0,34.531-3.977,56.391-18.75V538.43"/>
			<path id="path3395" fill="#FFFFFF" d="M4175.152,507.969c-7.875-31.484-11.078-82.898-11.078-202.82
				c0-175.383,14.281-228.828,60.312-228.828c28.75,0,45.156,21.328,52.188,68.359c4.359,34.141,7.25,87.664,7.25,148.289
				c0,124.766-5.219,199.375-15.781,227.812c-9.047,24.141-23.438,36.172-43.047,36.172c-24.594,0-40.141-14.844-49.828-48.984
				H4175.152z M4354.777,310.703C4354.777,83.75,4320.246,0,4227.355,0c-99.609,0-134.219,85.539-134.219,330
				c0,218.594,35.156,301.789,128.906,301.789C4320.246,631.789,4354.777,546.64,4354.777,310.703"/>
			<path id="path3397" fill="#FFFFFF" d="M4507.433,623.281l43.594-250.938c9.125-50.555,9.688-52.422,16.156-102.273
				c7.281-53.586,8.75-67.336,11.109-91.25c1.484,16.57,0.859,10.164,4.672,39.609c8.531,61.641,4.469,32.352,12.031,91.25
				c4.688,30.469,2.047,17.664,5.25,37.891l2.969,14.695l2.328,14.914l39.234,246.102h58.906l46.859-615.078h-65.609
				l-11.719,208.281c0,2.805-0.547,22.266-1.422,47.031c-3.578,109.844-2.109,57.266-4.438,157.734c0,1.094,0,5.625-0.562,10.312
				c-5.297-41.641-7.641-60.938-10-77.5c-11.391-73.992-7.578-48.914-12.016-77.664L4602.355,8.203h-45.391l-39.609,232.336
				c-9.391,53.445-20.469,132.82-26.641,191.023L4471.105,8.203h-63.281l41.562,615.078H4507.433"/>
			<path id="path3399" fill="#FFFFFF" d="M4882.746,352.109c47.969,0,67.969,27.734,67.969,94.922
				c0,71.953-20.547,106.25-63.047,106.25h-11.094V352.109H4882.746L4882.746,352.109z M4897.652,623.281
				c85.25,0,123.062-50.711,123.062-165.078c0-131.883-36.953-177.109-144.141-177.109V8.203h-67.969v615.078H4897.652"/>
			<path id="path3401" fill="#FFFFFF" d="M5142.902,623.281V188.984c0-35.945,1.391-57.273,3.75-70.945
				c4.672-25.07,22.031-39.836,45.453-39.836c40.719,0,49.781,18.438,49.781,98.75v446.328h66.156V176.953
				C5308.042,46.015,5278.214,0,5192.964,0c-53.359,0-87.891,22.109-104.281,68.125c-9.078,23.984-12.031,55.305-12.031,120.859
				v434.297H5142.902"/>
			<path id="path3403" fill="#FFFFFF" d="M5569.464,623.281v-72.812h-76.25V8.203h-66.172v542.266h-78.516v72.812H5569.464"/>
			<path id="path3405" fill="#FFFFFF" d="M5789.996,623.281v-70h-112.5V357.812h99.297v-70.164h-99.297V78.203h112.5v-70h-180.703
				v615.078H5789.996"/>
			<path id="path3407" fill="#FFFFFF" d="M5922.746,350.234c52.719,1.016,72.328,26.945,72.328,96.797
				c0,78.438-16.719,107.969-61.781,107.969h-10.547V350.234z M5943.824,623.281c79.078,0,116.891-50.711,116.891-157.742
				c0-89.367-24.859-145.617-69.391-158.508l91.969-298.828h-68.297l-92.25,300.547V8.203h-68.281v615.078H5943.824"/>
			<path id="path3409" fill="#FFFFFF" d="M6480.542,538.43c-19.906,12.039-30.141,15.711-43.047,15.711
				c-64.141,0-92.562-75.711-92.562-243.438c0-155.703,30.781-230.555,95.781-230.555c14.062,0,23.109,2.742,39.828,12.82V17.422
				C6461.792,3.515,6449.464,0,6426.652,0c-103.125,0-153.828,100.469-153.828,305.148c0,220.32,49.219,326.641,151.172,326.641
				c22.578,0,34.609-3.977,56.547-18.75V538.43"/>
			<path id="path3411" fill="#FFFFFF" d="M6720.792,623.281v-70h-112.828V357.812h99.938v-70.164h-99.938V78.203h112.828v-70
				h-180.796v615.078H6720.792"/>
			<path id="path3413" fill="#FFFFFF" d="M6848.823,623.281l67.969-245.242c17.812-67.336,36.891-149.367,51.25-222.18
				c-6.156,53.281-8.188,76.484-10.547,101.32c-2.328,35.789-5.219,105.086-5.219,136.57v229.531h67.969V8.203h-63.281
				l-76.25,276.719c-3.219,12.891-12.812,50.703-20.172,79.367c-5,22.109-5.609,24.773-16.078,85.711
				c-1.5,6.25-4.141,17.422-6.172,31.172c2.891-26.797,2.031-23.828,3.812-50.703c2.891-55.156,1.422-25.625,4.391-91.953
				c2.328-33.367,1.719-28.836,2.328-62.117l3.75-268.195h-67.031v615.078H6848.823"/>
			<path id="path3415" fill="#FFFFFF" d="M7281.495,623.281v-72.812h-76.422V8.203h-66.547v542.266h-78.453v72.812H7281.495"/>
			<path id="path3417" fill="#FFFFFF" d="M7501.792,623.281v-70h-112.5V357.812h99.703v-70.164h-99.703V78.203h112.5v-70h-180.688
				v615.078H7501.792"/>
			<path id="path3419" fill="#FFFFFF" d="M7634.542,350.234c53.031,1.016,72.422,26.945,72.422,96.797
				c0,78.438-16.422,107.969-61.891,107.969h-10.531V350.234z M7655.636,623.281c79.141,0,116.938-50.711,116.938-157.742
				c0-89.367-24.922-145.617-69.219-158.508l92.047-298.828h-68.609l-92.25,300.547V8.203h-67.656v615.078H7655.636"/>
			<path id="path3421" fill="#FFFFFF" d="M6045.246,972.031c-577.812,0-651.562,430.078-651.562,709.141
				c0,222.5,34.531,592.578,459.359,592.578c327.203,0,432.672-194.531,466.953-315.859h65.938l-23.438,339.687
				c-116.312,25.941-295.609,60.391-506.859,60.391c-564.844,0-723.359-293.988-723.359-694.058
				c0-460.551,253.438-789.23,781.078-789.23c153.531,0,277.438,12.109,386.109,36.023v89.922
				C6238.824,985.39,6159.152,972.031,6045.246,972.031"/>
			<path id="path3423" fill="#FFFFFF" d="M2031.019,1672.578c-241.25,110.23-570.859,173.121-570.859,365.473
				c0,142.648,163.359,235.699,348.91,235.699c296.48,0,407.578-133.91,432.418-248.75h69.301l-19.301,296.48
				c-124.688,19.148-243.75,36.488-429.688,36.488c-349.062,0-623.59-105.938-623.59-365.308
				c0-138.602,58.508-216.41,180.391-289.609c257.808-153.832,717.578-225,717.578-458.52c0-149.461-157.738-272.5-401.801-272.5
				c-25.777,0-90.078-1.562-113.359,0.312c-119.531,15.078-249.449,66.477-352.191,138.281V949.211
				c100.551-30.781,232.66-69.141,443.601-74.531c379.531-9.68,684.371,129.773,684.371,404.379
				C2396.801,1484.609,2250,1573.199,2031.019,1672.578"/>
			<path id="path3425" fill="#FFFFFF" d="M2834.773,1162.5c0-158.047,21.406-181.961,153.047-181.961
				c454.141,0,641.476,199.07,641.476,633.68c0,397.891-139.758,637.812-641.476,637.812c-131.641,0-153.047-13.051-153.047-181.641
				V1162.5z M2600.078,1116.789v999.152c0,162.188-87.258,177.109-229.68,177.109v43.359h617.422
				c438.438,0,902.812-77.82,902.812-722.191c0-642.188-488.359-717.898-902.812-717.898h-385.938L2600.078,1116.789"/>
			<path id="path3427" fill="#FFFFFF" d="M4735.933,1672.578c-241.156,110.23-571,173.121-571,365.473
				c0,142.648,163.422,235.699,349.219,235.699c296.484,0,407.172-133.91,432.422-248.75h69.141l-19.391,296.48
				c-124.75,19.148-243.969,36.488-429.438,36.488c-349.234,0-623.844-105.938-623.844-365.308
				c0-138.602,58.453-216.41,180.312-289.609c257.828-153.832,717.75-225,717.75-458.52c0-149.461-157.891-272.5-401.641-272.5
				c-25.781,0-90.25-1.562-113.672,0.312c-119.297,15.078-249.391,66.477-352.109,138.281V949.211
				c100.609-30.781,232.812-69.141,443.5-74.531c379.703-9.68,684.391,129.773,684.391,404.379
				C5101.574,1484.609,4954.464,1573.199,4735.933,1672.578"/>
		</g>
	</g>
</g>
</svg>
