<?xml version="1.0" encoding="utf-8"?>
<!-- Generator: Adobe Illustrator 16.0.4, SVG Export Plug-In . SVG Version: 6.00 Build 0)  -->
<!DOCTYPE svg PUBLIC "-//W3C//DTD SVG 1.1//EN" "http://www.w3.org/Graphics/SVG/1.1/DTD/svg11.dtd">
<svg version="1.1"
	 id="svg3567" xmlns:dc="http://purl.org/dc/elements/1.1/" xmlns:cc="http://creativecommons.org/ns#" xmlns:rdf="http://www.w3.org/1999/02/22-rdf-syntax-ns#" xmlns:svg="http://www.w3.org/2000/svg"
	 xmlns="http://www.w3.org/2000/svg" xmlns:xlink="http://www.w3.org/1999/xlink" x="0px" y="0px" width="366.637px"
	 height="69.044px" viewBox="0 0 366.637 69.044" enable-background="new 0 0 366.637 69.044" xml:space="preserve">
<g id="g3575" transform="matrix(1.25,0,0,-1.25,0,68.3375)">
	<g id="g3577" transform="scale(0.1,0.1)">
		<path id="path3579" fill="#FFFFFF" d="M350.648,264.999c0-86.703-12.66-152.531-144.309-152.531
			c-131.016,0-151.27,63.289-151.27,152.531v210.766c0,47.477-20.254,51.906-55.07,51.906v12.656h166.465v-12.656
			c-34.18,0-55.07-4.43-55.07-51.906V264.999c0-64.555,15.199-127.852,97.477-127.852c91.145,0,105.699,52.539,105.699,127.852
			v210.766c0,47.477-20.887,51.906-55.062,51.906v12.656h146.207v-12.656c-34.812,0-55.066-4.43-55.066-51.906V264.999"/>
		<path id="path3581" fill="#FFFFFF" d="M700.691,129.553c-31.012-11.391-66.457-17.086-113.293-17.086
			c-126.586,0-187.348,96.203-187.348,231.016c0,117.102,37.973,203.172,173.422,203.172c50.633,0,93.672-10.125,121.523-17.719
			l5.695-99.367h-15.824c-8.227,35.438-33.543,92.406-112.031,92.406c-101.898,0-110.133-108.234-110.133-173.422
			c0-81.656,17.727-207.609,156.34-207.609c42.406,0,65.191,9.492,81.648,15.828V129.553"/>
		<path id="path3583" fill="#FFFFFF" d="M1040.621,449.186c-5.699,33.547-31.019,72.789-98.742,72.789
			c-42.406,0-79.75-27.219-79.75-68.992c0-56.336,75.316-74.688,130.387-106.969c49.996-29.109,83.543-55.062,83.543-115.188
			c0-80.391-69.617-118.359-156.332-118.359c-43.043,0-93.043,9.492-108.867,12.023l-4.43,89.242h15.828
			c5.055-33.539,34.809-72.789,102.531-72.789c55.699,0,91.77,36.086,91.77,79.758c0,68.352-105.059,89.242-163.922,134.18
			c-27.852,21.516-41.145,44.305-41.145,84.812c0,75.953,62.664,106.961,142.414,106.961c42.402,0,69.625-5.055,98.105-10.758
			l4.43-86.711H1040.621"/>
		<path id="path3585" fill="#FFFFFF" d="M1251.41,243.788c-26.469-0.562-98.539-5.625-98.539-57.992
			c0-29.273,19.148-48.984,38.289-48.984c36.602,0,60.25,35.477,60.25,73.758V243.788z M1334.738,118.233
			c-6.758-1.688-20.828-5.07-41.109-5.07c-32.648,0-42.219,16.891-42.219,41.102h-1.129c-17.453-25.336-41.672-41.102-79.953-41.102
			c-38.859,0-67.566,27.031-67.566,63.625c0,81.648,105.848,81.648,148.648,85.586v21.398c0,39.406-0.57,81.078-47.871,81.078
			c-34.898,0-39.398-14.648-39.398-32.664c0-23.078-16.902-29.273-26.469-29.273c-15.203,0-27.031,10.133-27.031,25.336
			c0,36.602,54.621,55.18,93.469,55.18c77.141,0,91.211-37.164,91.211-89.523V154.264c0-19.703,6.758-26.461,24.219-26.461
			c5.062,0,10.133,1.125,15.199,2.25V118.233"/>
		<path id="path3587" fill="#FFFFFF" d="M1347.101,128.366c23.648,0,42.789,5.07,42.789,41.664v153.719
			c0,33.773-26.461,35.469-42.789,36.594v9.57l86.707,13.516v-74.32h1.133c7.879,20.828,33.207,74.32,88.953,74.32
			c59.688,0,65.312-32.656,65.312-85.023V170.03c0-36.594,19.141-41.664,42.797-41.664v-9.57h-129.5v9.57
			c23.641,0,42.781,5.07,42.781,41.664v115.992c0,48.422-0.555,70.383-37.719,70.383c-33.219,0-73.758-63.625-73.758-117.117V170.03
			c0-36.594,19.141-41.664,42.789-41.664v-9.57h-129.496V128.366"/>
		<path id="path3589" fill="#FFFFFF" d="M1807.848,196.647c0-46.211,5.078-53.172,36.711-53.172
			c108.867,0,153.812,58.234,153.812,185.453c0,116.461-33.562,186.719-153.812,186.719c-31.641,0-36.711-3.805-36.711-53.172
			V196.647L1807.848,196.647z M1696.457,131.452c34.172,0,55.062,4.43,55.062,51.906v292.406c0,47.477-20.891,51.906-55.062,51.906
			v12.656h148.102c105.07,0,216.476-22.781,216.476-211.398c0-187.984-117.094-210.133-216.476-210.133h-148.102V131.452"/>
		<path id="path3591" fill="#FFFFFF" d="M2115.035,467.319c0,18.016,14.078,32.094,32.094,32.094s32.102-14.078,32.102-32.094
			s-14.086-32.086-32.102-32.086S2115.035,449.303,2115.035,467.319z M2084.066,128.366c23.641,0,42.805,5.07,42.805,41.664v153.719
			c0,33.773-25.914,35.469-42.805,36.594v9.57l86.719,13.516V170.03c0-36.594,19.141-41.664,42.781-41.664v-9.57h-129.5V128.366"/>
		<path id="path3593" fill="#FFFFFF" d="M2374.59,296.155c0,29.844-10.141,68.695-53.492,68.695
			c-42.789,0-60.234-47.859-60.234-68.695H2374.59z M2417.379,123.296c-13.508-5.062-32.648-10.133-67-10.133
			c-87.266,0-136.258,47.859-136.258,142.453c0,82.203,33.219,127.812,114.305,127.812c50.664,0,96.281-28.156,96.281-93.469
			v-12.383h-163.844c0-47.297,23.086-143.586,117.109-143.586c12.953,0,28.148,1.695,39.406,7.32V123.296"/>
		<path id="path3595" fill="#FFFFFF" d="M2559.254,221.835c47.281,0,53.469,37.156,53.469,67c0,42.227-14.625,76.016-55.156,76.016
			c-44.484,0-52.938-32.664-52.938-65.32C2504.629,256.741,2518.707,221.835,2559.254,221.835L2559.254,221.835z M2510.254,123.866
			c-11.25-8.453-27.016-18.023-27.016-43.359c0-33.219,29.844-61.93,78.828-61.93c51.234,0,98.531,26.461,98.531,66.992
			c0,28.727-23.641,38.297-51.797,38.297H2510.254z M2607.676,163.842c27.031,0,89.531-1.133,89.531-63.641
			c0-64.164-63.078-100.203-137.953-100.203c-55.188,0-112.609,20.82-112.609,71.508c0,34.898,25.891,50.102,43.922,59.117
			c-9.578,5.625-24.219,16.328-24.219,39.969c0,20.836,18.016,42.227,24.219,48.984c-12.953,10.703-32.672,27.594-32.672,75.453
			c0,72.633,52.938,88.398,106.422,88.398c25.891,0,39.984-4.508,58-14.078c9,21.398,22.516,60.242,56.859,60.242
			c15.766,0,27.031-10.125,27.031-27.016c0-15.211-9.578-25.344-26.453-25.344c-14.641,0-18.031,7.883-25.359,7.883
			c-12.375,0-17.438-16.328-20.266-25.336c6.766-7.32,25.344-28.156,25.344-67.57c0-56.859-35.469-88.953-103.031-88.953
			c-22.516,0-38.844,2.805-51.234,8.445c-3.391-4.508-10.141-12.953-10.141-25.336c0-22.523,28.141-22.523,46.156-22.523H2607.676"
			/>
		<path id="path3597" fill="#FFFFFF" d="M2815.426,131.741c56.297,0,67.547,69.82,67.547,116.555s-11.25,116.555-67.547,116.555
			c-56.312,0-67.578-69.82-67.578-116.555S2759.113,131.741,2815.426,131.741z M2697.722,248.296
			c0,84.461,45.625,135.133,117.703,135.133c72.062,0,117.672-50.672,117.672-135.133c0-84.453-45.609-135.133-117.672-135.133
			C2743.347,113.163,2697.722,163.842,2697.722,248.296"/>
		<path id="path3599" fill="#FFFFFF" d="M2436.629,21.741H0V7.444h2450.269C2445.097,11.819,2440.558,16.608,2436.629,21.741"/>
		<path id="path3601" fill="#FFFFFF" d="M2928.597,21.741h-240.609c-5.062-5.148-10.656-9.914-16.766-14.297h257.375V21.741"/>
	</g>
</g>
</svg>
